<?xml version="1.0" encoding="UTF-8" standalone="no"?>
<!-- Created with Inkscape (http://www.inkscape.org/) -->

<svg
   version="1.1"
   id="svg2"
   xml:space="preserve"
   width="763.7276"
   height="226.39893"
   viewBox="0 0 763.7276 226.39893"
   sodipodi:docname="graphdeco_logo.svg"
   inkscape:version="1.1.2 (0a00cf5339, 2022-02-04)"
   xmlns:inkscape="http://www.inkscape.org/namespaces/inkscape"
   xmlns:sodipodi="http://sodipodi.sourceforge.net/DTD/sodipodi-0.dtd"
   xmlns="http://www.w3.org/2000/svg"
   xmlns:svg="http://www.w3.org/2000/svg"><defs
     id="defs6"><clipPath
       clipPathUnits="userSpaceOnUse"
       id="clipPath22"><path
         d="M 0,792 H 612 V 0 H 0 Z"
         id="path20" /></clipPath><radialGradient
       fx="0.36256301"
       fy="0.29154"
       cx="0"
       cy="0"
       r="1"
       gradientUnits="userSpaceOnUse"
       gradientTransform="matrix(18.048439,0,0,-18.048439,78.816361,387.39172)"
       spreadMethod="pad"
       id="radialGradient62"><stop
         style="stop-opacity:1;stop-color:#797b7d"
         offset="0"
         id="stop56" /><stop
         style="stop-opacity:1;stop-color:#797b7d"
         offset="0.42938659"
         id="stop58" /><stop
         style="stop-opacity:1;stop-color:#231f20"
         offset="1"
         id="stop60" /></radialGradient><clipPath
       clipPathUnits="userSpaceOnUse"
       id="clipPath72"><path
         d="M 0,792 H 612 V 0 H 0 Z"
         id="path70" /></clipPath><clipPath
       clipPathUnits="userSpaceOnUse"
       id="clipPath88"><path
         d="m 67.8374,392.453 h 10.979 v -17.306 h -10.979 z"
         id="path86" /></clipPath><linearGradient
       x1="0"
       y1="0"
       x2="1"
       y2="0"
       gradientUnits="userSpaceOnUse"
       gradientTransform="matrix(8.5737219,3.6912868,3.6912868,-8.5737219,68.17334,381.40536)"
       spreadMethod="pad"
       id="linearGradient100"><stop
         style="stop-opacity:1;stop-color:#e6e7e8"
         offset="0"
         id="stop94" /><stop
         style="stop-opacity:1;stop-color:#e6e7e8"
         offset="0.42938659"
         id="stop96" /><stop
         style="stop-opacity:1;stop-color:#2e2c2d"
         offset="1"
         id="stop98" /></linearGradient></defs><sodipodi:namedview
     id="namedview4"
     pagecolor="#ffffff"
     bordercolor="#666666"
     borderopacity="1.0"
     inkscape:pageshadow="2"
     inkscape:pageopacity="0.0"
     inkscape:pagecheckerboard="0"
     showgrid="false"
     inkscape:zoom="0.9628973"
     inkscape:cx="97.622041"
     inkscape:cy="-65.946805"
     inkscape:window-width="2560"
     inkscape:window-height="1376"
     inkscape:window-x="1920"
     inkscape:window-y="27"
     inkscape:window-maximized="1"
     inkscape:current-layer="g8" /><g
     id="g8"
     inkscape:groupmode="layer"
     inkscape:label="logo-graphdeco"
     transform="matrix(1.3333333,0,0,-1.3333333,-28.155628,598.76999)"><path
       d="m 202.01316,399.77681 -8.17627,-8.09326 q -7.76123,8.21777 -18.0957,8.21777 -9.00635,0 -15.10742,-5.97656 -6.05957,-5.97657 -6.05957,-14.52637 0,-8.84033 6.30859,-14.98291 6.30859,-6.14258 15.56396,-6.14258 6.01807,0 10.12696,2.53174 4.15039,2.53174 6.68213,7.92725 h -17.68067 v 10.91552 h 30.71289 l 0.083,-2.57324 q 0,-8.01025 -4.15039,-15.19043 -4.15039,-7.18017 -10.74951,-10.95703 -6.59912,-3.77685 -15.48096,-3.77685 -9.50439,0 -16.97509,4.10888 -7.4292,4.15039 -11.78711,11.78711 -4.31641,7.63672 -4.31641,16.47705 0,12.11914 8.01025,21.08399 9.5044,10.6665 24.73633,10.6665 7.96875,0 14.8999,-2.94678 5.85206,-2.49023 11.45508,-8.5498 z"
       id="path5534"
       style="font-weight:bold;font-size:85px;font-family:'Century Gothic';-inkscape-font-specification:CenturyGothic-Bold;fill:#db2d2d;fill-opacity:1" /><path
       d="m 208.47449,393.84175 h 9.71191 v -5.68604 q 1.57715,3.36182 4.1919,5.10498 2.61474,1.74317 5.72754,1.74317 2.1997,0 4.60693,-1.16211 l -3.52783,-9.75342 q -1.99219,0.9961 -3.27881,0.9961 -2.61475,0 -4.44092,-3.23731 -1.78467,-3.2373 -1.78467,-12.70019 l 0.0415,-2.19971 V 348.6855 h -11.24755 z"
       id="path5536"
       style="font-weight:bold;font-size:85px;font-family:'Century Gothic';-inkscape-font-specification:CenturyGothic-Bold;fill:#db2d2d;fill-opacity:1" /><path
       d="m 267.02488,393.84175 h 11.28906 V 348.6855 h -11.28906 v 4.77295 q -3.32031,-3.1543 -6.68213,-4.56543 -3.32031,-1.36963 -7.22168,-1.36963 -8.75732,0 -15.14893,6.76514 -6.3916,6.80664 -6.3916,16.89209 0,10.45898 6.18409,17.14111 6.18408,6.68213 15.02441,6.68213 4.06738,0 7.63672,-1.53565 3.56933,-1.53564 6.59912,-4.60693 z m -11.91162,-9.29688 q -5.271,0 -8.75733,-3.73535 -3.48632,-3.69384 -3.48632,-9.50439 0,-5.85205 3.52783,-9.62891 3.56933,-3.77685 8.75732,-3.77685 5.35401,0 8.88184,3.69384 3.52783,3.73536 3.52783,9.75342 0,5.89356 -3.52783,9.5459 -3.52783,3.65234 -8.92334,3.65234 z"
       id="path5538"
       style="font-weight:bold;font-size:85px;font-family:'Century Gothic';-inkscape-font-specification:CenturyGothic-Bold;fill:#db2d2d;fill-opacity:1" /><path
       d="m 296.3283,393.84175 v -4.98047 q 3.07129,3.07129 6.64063,4.60693 3.56933,1.53565 7.63671,1.53565 8.84034,0 15.02442,-6.68213 6.18408,-6.68213 6.18408,-17.14111 0,-10.08545 -6.3916,-16.89209 -6.3916,-6.76514 -15.14893,-6.76514 -3.90136,0 -7.26318,1.36963 -3.36182,1.41113 -6.68213,4.56543 v -21.29151 h -11.24756 v 61.67481 z m 11.91162,-9.29688 q -5.354,0 -8.88183,-3.65234 -3.52784,-3.65234 -3.52784,-9.5459 0,-6.01806 3.52784,-9.75342 3.52783,-3.69384 8.88183,-3.69384 5.18799,0 8.71582,3.77685 3.56934,3.77686 3.56934,9.62891 0,5.81055 -3.48633,9.50439 -3.48633,3.73535 -8.79883,3.73535 z"
       id="path5540"
       style="font-weight:bold;font-size:85px;font-family:'Century Gothic';-inkscape-font-specification:CenturyGothic-Bold;fill:#db2d2d;fill-opacity:1" /><path
       d="m 336.54725,411.27339 h 11.24756 v -21.99707 q 3.32031,2.86377 6.68213,4.2749 3.36181,1.45264 6.80664,1.45264 6.72363,0 11.33056,-4.64844 3.94287,-4.02588 3.94287,-11.82861 V 348.6855 h -11.16455 v 19.79736 q 0,7.84424 -0.74707,10.625 -0.74707,2.78076 -2.57324,4.15039 -1.78467,1.36963 -4.44092,1.36963 -3.44482,0 -5.93506,-2.28271 -2.44873,-2.28272 -3.40332,-6.22559 -0.49804,-2.03369 -0.49804,-9.29687 V 348.6855 h -11.24756 z"
       id="path5542"
       style="font-weight:bold;font-size:85px;font-family:'Century Gothic';-inkscape-font-specification:CenturyGothic-Bold;fill:#db2d2d;fill-opacity:1" /><path
       d="m 384.11736,409.73775 h 13.7793 q 13.32275,0 19.79736,-3.32032 6.47461,-3.27881 10.66651,-10.708 4.19189,-7.4292 4.19189,-17.34864 0,-7.05566 -2.36572,-12.99072 -2.32422,-5.89355 -6.47461,-9.79492 -4.10889,-3.90137 -8.92334,-5.39551 -4.81445,-1.49414 -16.68457,-1.49414 h -13.98682 z m 11.57959,-11.20606 v -38.47412 h 5.39551 q 7.96875,0 11.53809,1.82617 3.61084,1.82617 5.89355,6.14258 2.28272,4.31641 2.28272,10.625 0,9.71191 -5.43702,15.06592 -4.89746,4.81445 -15.72998,4.81445 z"
       id="path5544"
       style="font-weight:bold;font-size:85px;font-family:'Century Gothic';-inkscape-font-specification:CenturyGothic-Bold;fill:#282828" /><path
       d="m 482.895,367.98482 h -36.39893 q 0.78858,-4.81446 4.1919,-7.67823 3.44482,-2.82226 8.75732,-2.82226 6.3501,0 10.91553,4.44092 l 9.5459,-4.48243 q -3.56934,-5.06347 -8.54981,-7.5122 -4.98047,-2.40723 -11.82861,-2.40723 -10.625,0 -17.30713,6.68213 -6.68213,6.72363 -6.68213,16.80908 0,10.33447 6.64062,17.14111 6.68213,6.84815 16.72608,6.84815 10.6665,0 17.34863,-6.84815 6.68213,-6.80664 6.68213,-18.01269 z m -11.37207,8.92334 q -1.12061,3.77685 -4.44092,6.14257 -3.27881,2.36573 -7.63672,2.36573 -4.73145,0 -8.30078,-2.65625 -2.24121,-1.66016 -4.15039,-5.85205 z"
       id="path5546"
       style="font-weight:bold;font-size:85px;font-family:'Century Gothic';-inkscape-font-specification:CenturyGothic-Bold;fill:#282828" /><path
       d="m 531.58241,384.71089 -9.42139,-5.18799 q -2.65625,2.78076 -5.271,3.85987 -2.57324,1.0791 -6.05957,1.0791 -6.3501,0 -10.29297,-3.81836 -3.90136,-3.77686 -3.90136,-9.71192 0,-5.76904 3.77685,-9.42138 3.77686,-3.65235 9.91944,-3.65235 7.59521,0 11.82861,5.18799 l 8.92334,-6.10107 q -7.26319,-9.42139 -20.50293,-9.42139 -11.91162,0 -18.67676,7.05566 -6.72363,7.05567 -6.72363,16.51856 0,6.55762 3.27881,12.07764 3.27881,5.52002 9.13086,8.67431 5.89355,3.1543 13.15673,3.1543 6.72364,0 12.07764,-2.69776 5.35401,-2.65625 8.75733,-7.59521 z"
       id="path5548"
       style="font-weight:bold;font-size:85px;font-family:'Century Gothic';-inkscape-font-specification:CenturyGothic-Bold;fill:#282828" /><path
       d="m 558.31425,395.00386 q 6.3916,0 11.99463,-3.1958 5.64453,-3.1958 8.79882,-8.67432 3.1543,-5.47851 3.1543,-11.82861 0,-6.3916 -3.1958,-11.95313 -3.1543,-5.56152 -8.63281,-8.71582 -5.47852,-3.11279 -12.07764,-3.11279 -9.71191,0 -16.60156,6.88965 -6.84815,6.93115 -6.84815,16.80908 0,10.5835 7.76123,17.63916 6.80665,6.14258 15.64698,6.14258 z m 0.16601,-10.66651 q -5.27099,0 -8.79883,-3.69384 -3.48632,-3.65235 -3.48632,-9.37989 0,-5.89355 3.44482,-9.54589 3.48633,-3.65235 8.79883,-3.65235 5.3125,0 8.84033,3.69385 3.52783,3.69385 3.52783,9.50439 0,5.81055 -3.48632,9.42139 -3.44483,3.65234 -8.84034,3.65234 z"
       id="path5550"
       style="font-weight:bold;font-size:85px;font-family:'Century Gothic';-inkscape-font-specification:CenturyGothic-Bold;fill:#282828" /><g
       id="g16"><g
         id="g18"
         clip-path="url(#clipPath22)"><g
           id="g24"
           transform="translate(42.2714,344.9645)"><path
             d="M 0,0 -10.905,-30.08 12.269,-8.94 8.91,-0.551 Z M 66.131,82.846 10.806,0.411 13.888,-8.115 72.38,78.893 Z M 58.275,88.169 0.481,1.545 9.212,1.257 64.79,83.911 Z m 5.491,8.245 -4.283,-6.418 14.104,-9.276 4.283,6.419 z m 12.592,5.365 c -2.387,1.361 -4.899,1.964 -7.467,2.334 l -4.282,-6.419 14.104,-9.275 4.282,6.418 c -2.001,3.473 -4.25,5.582 -6.637,6.942 z"
             style="fill:#db2d2d;fill-opacity:1;fill-rule:nonzero;stroke:none"
             id="path26" /></g><g
           id="g28"
           transform="translate(103.5437,420.5704)"><path
             d="m 0,0 -49.333,-73.506 3.867,-4.95 c 0.289,-0.37 0.598,-0.716 0.918,-1.045 l 49.33,73.38 z"
             style="fill:#630808;fill-opacity:1;fill-rule:nonzero;stroke:none"
             id="path30" /></g><g
           id="g32"
           transform="translate(48.23,354.7193)"><path
             d="m 0,0 4.819,-6.169 49.379,73.434 c -1.725,2.144 -4.012,3.571 -6.485,4.249 z"
             style="fill:#630808;fill-opacity:1;fill-rule:nonzero;stroke:none"
             id="path34" /></g><g
           id="g36"
           transform="translate(46.3185,407.4774)"><path
             d="m 0,0 22.475,17.558 c 1.904,1.488 4.653,1.15 6.14,-0.754 L 36.183,7.118 C 37.67,5.214 37.332,2.465 35.428,0.977 L 12.954,-16.581 c -1.904,-1.487 -4.653,-1.15 -6.141,0.754 l -7.567,9.686 C -2.242,-4.237 -1.904,-1.488 0,0"
             style="fill:#282828;fill-opacity:1;fill-rule:nonzero;stroke:none"
             id="path38" /></g><g
           id="g40"
           transform="translate(38.4256,392.9147)"><path
             d="m 0,0 46.407,36.256 c 5.492,4.291 13.423,3.317 17.714,-2.175 L 85.948,6.142 C 90.239,0.65 89.265,-7.281 83.773,-11.572 L 37.366,-47.828 c -5.492,-4.29 -13.423,-3.317 -17.714,2.176 L -2.175,-17.713 C -6.466,-12.221 -5.492,-4.291 0,0"
             style="fill:#282828;fill-opacity:1;fill-rule:nonzero;stroke:none"
             id="path42" /></g></g></g><g
       id="g44"><g
         id="g46"><g
           id="g52"><g
             id="g54"><path
               d="m 65.851,386.851 c 0,-6.083 3.74,-11.286 9.043,-13.454 v 0 c -1.962,2.478 -3.141,5.603 -3.141,9.008 v 0 c 0,8.028 6.507,14.535 14.535,14.535 v 0 c 1.945,0 3.797,-0.389 5.493,-1.082 v 0 c -2.662,3.363 -6.771,5.528 -11.394,5.528 v 0 c -8.028,0 -14.536,-6.507 -14.536,-14.535"
               style="fill:url(#radialGradient62);stroke:none"
               id="path64" /></g></g></g></g><g
       id="g66"><g
         id="g68"
         clip-path="url(#clipPath72)"><g
           id="g74"
           transform="translate(68.5596,402.1718)"><path
             d="m 0,0 c 8.308,6.491 20.305,5.017 26.795,-3.291 6.491,-8.308 5.018,-20.304 -3.29,-26.795 C 15.197,-36.577 3.2,-35.103 -3.291,-26.795 -9.781,-18.487 -8.308,-6.491 0,0 Z"
             style="fill:none;stroke:#ffffff;stroke-width:4;stroke-linecap:butt;stroke-linejoin:miter;stroke-miterlimit:10;stroke-dasharray:none;stroke-opacity:1"
             id="path76" /></g><g
           id="g78"
           transform="translate(45.0796,385.4445)"><path
             d="M 0,0 C 1.913,1.495 4.675,1.155 6.17,-0.758 7.664,-2.671 7.325,-5.433 5.412,-6.927 3.499,-8.422 0.737,-8.083 -0.758,-6.17 -2.252,-4.257 -1.913,-1.495 0,0"
             style="fill:#ffffff;fill-opacity:1;fill-rule:nonzero;stroke:none"
             id="path80" /></g><g
           id="g82"><g
             id="g84" /><g
             id="g114"><g
               clip-path="url(#clipPath88)"
               opacity="0.399994"
               id="g112"><g
                 id="g110"><g
                   id="g108"><g
                     id="g106"><g
                       id="g104"><path
                         d="m 78.816,382.07 c -2.255,0.262 -4.007,2.176 -4.007,4.502 0,0.848 0.238,1.639 0.643,2.318 l -5.984,3.563 c -1.029,-1.723 -1.631,-3.73 -1.631,-5.883 0,-5.901 4.444,-10.757 10.167,-11.423 z"
                         style="fill:url(#linearGradient100);stroke:none"
                         id="path102" /></g></g></g></g></g></g></g><g
           id="g116"
           transform="translate(104.8733,403.9178)"><path
             d="m 0,0 c -6.761,9.656 -14.606,17.558 -22.561,23.252 l -2.985,-2.331 C -18.28,15.931 -11.136,8.871 -5.04,0.166 1.897,-9.742 6.366,-20.196 8.246,-29.699 l 4.898,3.827 C 10.385,-17.414 5.982,-8.543 0,0"
             style="fill:#000000;fill-opacity:1;fill-rule:nonzero;stroke:none"
             id="path118" /></g><g
           id="g120"
           transform="translate(107.8776,405.7303)"><path
             d="m 0,0 c -18.761,26.793 -45.863,40.185 -60.535,29.911 -9.389,-6.574 -11.4,-21.252 -6.722,-37.989 l 0.992,0.775 c -3.706,14.577 -1.58,27.382 6.872,33.3 13.439,9.41 37.774,-2.155 54.353,-25.831 16.578,-23.677 19.123,-50.5 5.683,-59.91 -6.645,-4.654 -15.955,-4.171 -25.673,0.361 l -3.326,-2.599 c 13.403,-8.879 26.865,-11.36 35.76,-5.132 C 22.075,-56.841 18.761,-26.793 0,0"
             style="fill:#db2d2d;fill-opacity:1;fill-rule:nonzero;stroke:none"
             id="path122" /></g></g></g><g
       aria-label="GRAPHics and Design with hEterogeneous COntent"
       transform="matrix(1,0,0,-1,19.8218,284.6865)"
       id="text126"
       style="font-weight:bold;font-size:26px;font-family:'Century Gothic';-inkscape-font-specification:CenturyGothic-Bold;fill:#777777"><path
         d="m 19.373047,-15.62793 -2.500977,2.475586 q -2.374023,-2.513672 -5.535156,-2.513672 -2.7548827,0 -4.6210937,1.828125 -1.8535156,1.828125 -1.8535156,4.4433597 0,2.7041016 1.9296875,4.5830079 1.9296875,1.8789062 4.7607418,1.8789062 1.840821,0 3.097657,-0.7744141 1.269531,-0.774414 2.043945,-2.4248046 h -5.408203 v -3.3388672 h 9.394531 l 0.02539,0.7871093 q 0,2.4501954 -1.269532,4.6464844 -1.269531,2.1962891 -3.288086,3.35156253 -2.018554,1.15527343 -4.735351,1.15527343 -2.9072266,0 -5.1923829,-1.25683593 Q 3.9482422,-2.0566406 2.6152344,-4.3925781 1.2949219,-6.7285156 1.2949219,-9.4326172 q 0,-3.7070308 2.4501953,-6.4492188 2.9072265,-3.262695 7.5664058,-3.262695 2.4375,0 4.557618,0.901367 1.790039,0.761719 3.503906,2.615234 z"
         id="path5670" /><path
         d="m 22.784023,-18.674805 h 3.770508 q 3.097656,0 4.405274,0.558594 1.320312,0.545899 2.120117,1.828125 0.799804,1.282227 0.799804,3.03418 0,1.84082 -0.888671,3.084961 -0.875977,1.231445 -2.653321,1.8662106 L 34.755703,0 H 30.870937 L 26.668789,-7.9091797 H 26.338711 V 0 h -3.554688 z m 3.554688,7.299805 h 1.117187 q 1.701172,0 2.335938,-0.444336 0.647461,-0.444336 0.647461,-1.472656 0,-0.609375 -0.317383,-1.053711 -0.317383,-0.457031 -0.850586,-0.647461 -0.533203,-0.203125 -1.955078,-0.203125 h -0.977539 z"
         id="path5672" /><path
         d="m 41.880314,-18.674805 h 3.605469 L 52.671329,0 H 48.976994 L 47.517033,-3.8466797 H 39.899845 L 38.376408,0 h -3.694336 z m 1.828125,4.951172 -2.488281,6.411133 h 4.963867 z"
         id="path5674" /><path
         d="m 53.990116,-18.674805 h 3.770508 q 3.05957,0 4.405273,0.571289 1.358399,0.558594 2.132813,1.828125 0.787109,1.256836 0.787109,3.021485 0,1.955078 -1.02832,3.25 -1.015625,1.2949216 -2.767578,1.8027341 -1.028321,0.2919922 -3.745117,0.2919922 V 0 h -3.554688 z m 3.554688,7.299805 h 1.129882 q 1.333008,0 1.853516,-0.19043 0.520508,-0.190429 0.8125,-0.62207 0.304688,-0.444336 0.304688,-1.066406 0,-1.079102 -0.837891,-1.574219 -0.609375,-0.368164 -2.259766,-0.368164 h -1.002929 z"
         id="path5676" /><path
         d="m 67.120117,-18.674805 h 3.605469 v 7.045899 h 6.246094 v -7.045899 h 3.592773 V 0 H 76.97168 V -8.1884766 H 70.725586 V 0 h -3.605469 z"
         id="path5678" /><path
         d="m 84.360352,-19.5 q 0.914062,0 1.561523,0.660156 0.660156,0.660157 0.660156,1.59961 0,0.926757 -0.647461,1.586914 -0.647461,0.647461 -1.548828,0.647461 -0.926758,0 -1.586914,-0.660157 -0.647461,-0.672851 -0.647461,-1.625 0,-0.914062 0.647461,-1.561523 Q 83.446289,-19.5 84.360352,-19.5 Z m -1.739258,5.6875 h 3.478515 V 0 h -3.478515 z"
         id="path5680" /><path
         d="m 101.33246,-11.019531 -2.881837,1.5869138 q -0.8125,-0.8505858 -1.612305,-1.1806638 -0.78711,-0.330078 -1.853516,-0.330078 -1.942383,0 -3.148437,1.1679684 -1.19336,1.1552734 -1.19336,2.9707031 0,1.7646484 1.155274,2.8818359 1.155273,1.1171875 3.034179,1.1171875 2.323243,0 3.618165,-1.586914 l 2.729487,1.8662109 q -2.221675,2.88183595 -6.27148,2.88183595 -3.643554,0 -5.71289,-2.15820315 -2.056641,-2.1582031 -2.056641,-5.0527343 0,-2.0058594 1.00293,-3.6943363 1.002929,-1.688476 2.792969,-2.65332 1.802734,-0.964844 4.024414,-0.964844 2.05664,0 3.694336,0.825196 1.637692,0.8125 2.678712,2.323242 z"
         id="path5682" /><path
         d="m 111.47703,-11.882813 -2.14551,2.1455083 q -1.30762,-1.2949223 -2.37402,-1.2949223 -0.58399,0 -0.91407,0.253907 -0.33007,0.241211 -0.33007,0.609375 0,0.2792966 0.20312,0.5205075 0.21582,0.2285156 1.04102,0.6347656 l 1.26953,0.6347656 q 2.00586,0.9902344 2.75488,2.0185547 0.74902,1.0283204 0.74902,2.4121094 0,1.8408203 -1.35839,3.07226564 -1.34571,1.23144531 -3.61817,1.23144531 -3.02148,0 -4.82422,-2.36132815 l 2.13282,-2.3232422 q 0.60937,0.7109375 1.42187,1.1552735 0.8252,0.4316406 1.45996,0.4316406 0.68555,0 1.10449,-0.3300781 0.41895,-0.3300782 0.41895,-0.7617188 0,-0.7998047 -1.51074,-1.5615234 l -1.16797,-0.5839844 q -3.35156,-1.6884765 -3.35156,-4.2275388 0,-1.637696 1.25683,-2.792969 1.26953,-1.167969 3.23731,-1.167969 1.3457,0 2.52636,0.59668 1.19336,0.583984 2.01856,1.688476 z"
         id="path5684" /><path
         d="m 129.08898,-13.8125 h 3.45313 V 0 h -3.45313 v -1.4599609 q -1.01562,0.96484371 -2.04394,1.39648434 -1.01563,0.41894531 -2.20899,0.41894531 -2.67871,0 -4.63379,-2.06933595 -1.95508,-2.0820312 -1.95508,-5.1669922 0,-3.1992186 1.89161,-5.2431636 1.8916,-2.043946 4.5957,-2.043946 1.24414,0 2.33594,0.469727 1.09179,0.469726 2.01855,1.409179 z m -3.64355,2.84375 q -1.61231,0 -2.67871,1.1425781 -1.06641,1.1298828 -1.06641,2.9072266 0,1.7900391 1.0791,2.9453125 1.0918,1.1552734 2.67871,1.1552734 1.6377,0 2.7168,-1.1298828 1.0791,-1.1425781 1.0791,-2.9833984 0,-1.8027344 -1.0791,-2.9199219 -1.0791,-1.1171875 -2.72949,-1.1171875 z"
         id="path5686" /><path
         d="m 134.61195,-13.8125 h 3.45313 v 1.40918 q 1.18066,-0.990235 2.13281,-1.371094 0.96484,-0.393555 1.96777,-0.393555 2.05665,0 3.49122,1.434571 1.20605,1.21875 1.20605,3.6054683 V 0 h -3.42773 v -6.0556641 q 0,-2.4755859 -0.22852,-3.2880859 -0.21582,-0.8125 -0.77441,-1.231445 -0.5459,-0.431641 -1.3584,-0.431641 -1.05371,0 -1.81543,0.710938 -0.74903,0.6982417 -1.04102,1.9423824 -0.15234,0.6474609 -0.15234,2.805664 V 0 h -3.45313 z"
         id="path5688" /><path
         d="m 158.98898,-19.144531 h 3.45313 V 0 h -3.45313 v -1.4599609 q -1.01562,0.96484371 -2.04394,1.39648434 -1.01563,0.41894531 -2.20899,0.41894531 -2.67871,0 -4.63379,-2.06933595 -1.95507,-2.0820312 -1.95507,-5.1669922 0,-3.1992186 1.8916,-5.2431636 1.8916,-2.043946 4.5957,-2.043946 1.24414,0 2.33594,0.469727 1.0918,0.469726 2.01855,1.409179 z m -3.64355,8.175781 q -1.61231,0 -2.67871,1.1425781 -1.06641,1.1298828 -1.06641,2.9072266 0,1.7900391 1.0791,2.9453125 1.0918,1.1552734 2.67871,1.1552734 1.6377,0 2.7168,-1.1298828 1.0791,-1.1425781 1.0791,-2.9833984 0,-1.8027344 -1.0791,-2.9199219 -1.0791,-1.1171875 -2.72949,-1.1171875 z"
         id="path5690" /><path
         d="m 170.75551,-18.674805 h 4.21484 q 4.0752,0 6.05567,1.015625 1.98046,1.00293 3.26269,3.275391 1.28223,2.272461 1.28223,5.3066406 0,2.1582031 -0.72363,3.9736328 -0.71094,1.8027343 -1.98047,2.9960937 -1.25684,1.1933594 -2.7295,1.65039065 Q 178.66469,0 175.03383,0 h -4.27832 z m 3.54199,3.427735 v 11.7685544 h 1.65039 q 2.4375,0 3.5293,-0.5585938 1.10449,-0.5585937 1.80273,-1.8789062 0.69824,-1.3203125 0.69824,-3.25 0,-2.9707034 -1.66308,-4.6083984 -1.49805,-1.472656 -4.81152,-1.472656 z"
         id="path5692" /><path
         d="m 200.96985,-5.9033203 h -11.13379 q 0.24121,1.4726562 1.28223,2.3486328 1.05371,0.8632812 2.67871,0.8632812 1.94238,0 3.33886,-1.3583984 l 2.91993,1.3710938 q -1.0918,1.5488281 -2.61524,2.29785152 -1.52344,0.73632813 -3.61816,0.73632813 -3.25,0 -5.29395,-2.04394535 -2.04394,-2.0566406 -2.04394,-5.1416015 0,-3.1611328 2.03125,-5.2431639 2.04394,-2.094727 5.11621,-2.094727 3.26269,0 5.30664,2.094727 2.04394,2.0820311 2.04394,5.5097654 z m -3.47852,-2.7294922 q -0.34277,-1.1552734 -1.3584,-1.8789065 -1.00293,-0.723633 -2.33593,-0.723633 -1.44727,0 -2.53907,0.8125 -0.68554,0.5078129 -1.26953,1.7900395 z"
         id="path5694" /><path
         d="m 210.79703,-11.882813 -2.14551,2.1455083 q -1.30762,-1.2949223 -2.37402,-1.2949223 -0.58399,0 -0.91407,0.253907 -0.33007,0.241211 -0.33007,0.609375 0,0.2792966 0.20312,0.5205075 0.21582,0.2285156 1.04102,0.6347656 l 1.26953,0.6347656 q 2.00586,0.9902344 2.75488,2.0185547 0.74902,1.0283204 0.74902,2.4121094 0,1.8408203 -1.35839,3.07226564 -1.34571,1.23144531 -3.61817,1.23144531 -3.02148,0 -4.82422,-2.36132815 l 2.13282,-2.3232422 q 0.60937,0.7109375 1.42187,1.1552735 0.8252,0.4316406 1.45996,0.4316406 0.68555,0 1.10449,-0.3300781 0.41895,-0.3300782 0.41895,-0.7617188 0,-0.7998047 -1.51074,-1.5615234 l -1.16797,-0.5839844 q -3.35156,-1.6884765 -3.35156,-4.2275388 0,-1.637696 1.25683,-2.792969 1.26953,-1.167969 3.23731,-1.167969 1.3457,0 2.52636,0.59668 1.19336,0.583984 2.01856,1.688476 z"
         id="path5696" /><path
         d="m 213.71036,-19.5 q 0.91406,0 1.56152,0.660156 0.66016,0.660157 0.66016,1.59961 0,0.926757 -0.64746,1.586914 -0.64746,0.647461 -1.54883,0.647461 -0.92676,0 -1.58692,-0.660157 -0.64746,-0.672851 -0.64746,-1.625 0,-0.914062 0.64746,-1.561523 Q 212.7963,-19.5 213.71036,-19.5 Z m -1.73926,5.6875 h 3.47852 V 0 h -3.47852 z"
         id="path5698" /><path
         d="m 227.36899,-13.8125 h 3.45312 v 11.8320313 q 0,3.5039062 -1.40918,5.1542968 -1.8916,2.234375 -5.70019,2.234375 -2.03125,0 -3.41504,-0.5078125 -1.38379,-0.5078125 -2.33594,-1.4980468 -0.95215,-0.9775391 -1.40918,-2.3867188 h 3.82129 q 0.50781,0.5839844 1.30762,0.8759766 0.7998,0.3046875 1.8916,0.3046875 1.39648,0 2.24707,-0.4316407 0.85059,-0.4316406 1.19336,-1.11718746 0.35547,-0.68554688 0.35547,-2.36132814 -0.91406,0.91406251 -1.91699,1.32031251 Q 224.44907,0 223.17953,0 q -2.78027,0 -4.69726,-2.0058594 -1.91699,-2.0058593 -1.91699,-5.078125 0,-3.2880856 2.03125,-5.2812496 1.84082,-1.802735 4.39258,-1.802735 1.19335,0 2.24707,0.444336 1.0664,0.431641 2.13281,1.43457 z m -3.59278,2.881836 q -1.63769,0 -2.7041,1.1044921 -1.0664,1.0917969 -1.0664,2.7548828 0,1.7265625 1.09179,2.8310547 1.0918,1.1044922 2.74219,1.1044922 1.61231,0 2.65332,-1.0791015 1.05371,-1.0791016 1.05371,-2.8310547 0,-1.7265625 -1.05371,-2.8056641 -1.05371,-1.0791015 -2.7168,-1.0791015 z"
         id="path5700" /><path
         d="m 232.89195,-13.8125 h 3.45313 v 1.40918 q 1.18066,-0.990235 2.13281,-1.371094 0.96484,-0.393555 1.96777,-0.393555 2.05664,0 3.49121,1.434571 1.20606,1.21875 1.20606,3.6054683 V 0 h -3.42774 v -6.0556641 q 0,-2.4755859 -0.22851,-3.2880859 -0.21582,-0.8125 -0.77441,-1.231445 -0.5459,-0.431641 -1.3584,-0.431641 -1.05371,0 -1.81543,0.710938 -0.74903,0.6982417 -1.04102,1.9423824 -0.15234,0.6474609 -0.15234,2.805664 V 0 h -3.45313 z"
         id="path5702" /><path
         d="m 251.37582,-13.8125 h 3.38965 l 2.78028,7.8583984 2.99609,-7.8583984 h 2.06934 l 2.93261,7.7695313 2.78028,-7.7695313 h 3.41504 L 266.69907,0 h -2.19629 L 261.55746,-7.8710937 258.52328,0 h -2.17089 z"
         id="path5704" /><path
         d="m 273.64035,-19.5 q 0.91406,0 1.56152,0.660156 0.66016,0.660157 0.66016,1.59961 0,0.926757 -0.64746,1.586914 -0.64746,0.647461 -1.54883,0.647461 -0.92676,0 -1.58691,-0.660157 -0.64746,-0.672851 -0.64746,-1.625 0,-0.914062 0.64746,-1.561523 Q 272.72629,-19.5 273.64035,-19.5 Z m -1.73926,5.6875 h 3.47852 V 0 h -3.47852 z"
         id="path5706" /><path
         d="m 277.51089,-18.90332 h 3.45313 v 5.09082 h 2.05664 v 2.983398 h -2.05664 V 0 h -3.45313 v -10.829102 h -1.77734 V -13.8125 h 1.77734 z"
         id="path5708" /><path
         d="m 283.47464,-19.144531 h 3.44043 v 6.728515 q 1.01562,-0.875976 2.04394,-1.307617 1.02833,-0.444336 2.08204,-0.444336 2.05664,0 3.46582,1.421875 1.20605,1.231446 1.20605,3.6181643 V 0 h -3.41504 v -6.0556641 q 0,-2.399414 -0.22851,-3.25 -0.22852,-0.8505859 -0.78711,-1.2695309 -0.5459,-0.418946 -1.3584,-0.418946 -1.05371,0 -1.81543,0.698243 -0.74902,0.6982417 -1.04102,1.9042964 -0.15234,0.6220704 -0.15234,2.84375 V 0 h -3.44043 z"
         id="path5710" /><path
         d="m 303.49466,-19.144531 h 3.44043 v 6.728515 q 1.01562,-0.875976 2.04394,-1.307617 1.02832,-0.444336 2.08204,-0.444336 2.05664,0 3.46582,1.421875 1.20605,1.231446 1.20605,3.6181643 V 0 h -3.41504 v -6.0556641 q 0,-2.399414 -0.22851,-3.25 -0.22852,-0.8505859 -0.78711,-1.2695309 -0.5459,-0.418946 -1.3584,-0.418946 -1.05371,0 -1.81543,0.698243 -0.74902,0.6982417 -1.04102,1.9042964 -0.15234,0.6220704 -0.15234,2.84375 V 0 h -3.44043 z"
         id="path5712" /><path
         d="m 318.0455,-18.674805 h 10.19434 v 3.478516 h -6.66504 v 3.376953 h 6.66504 v 3.4150391 h -6.66504 v 4.913086 h 6.66504 V 0 H 318.0455 Z"
         id="path5714" /><path
         d="m 330.16089,-18.90332 h 3.45312 v 5.09082 h 2.05664 v 2.983398 h -2.05664 V 0 h -3.45312 v -10.829102 h -1.77735 V -13.8125 h 1.77735 z"
         id="path5716" /><path
         d="m 349.94983,-5.9033203 h -11.13379 q 0.24121,1.4726562 1.28223,2.3486328 1.05371,0.8632812 2.67871,0.8632812 1.94238,0 3.33886,-1.3583984 l 2.91993,1.3710938 q -1.0918,1.5488281 -2.61524,2.29785152 -1.52344,0.73632813 -3.61816,0.73632813 -3.25,0 -5.29395,-2.04394535 -2.04394,-2.0566406 -2.04394,-5.1416015 0,-3.1611328 2.03125,-5.2431639 2.04394,-2.094727 5.11621,-2.094727 3.26269,0 5.30664,2.094727 2.04394,2.0820311 2.04394,5.5097654 z m -3.47852,-2.7294922 q -0.34277,-1.1552734 -1.35839,-1.8789065 -1.00293,-0.723633 -2.33594,-0.723633 -1.44727,0 -2.53906,0.8125 -0.68555,0.5078129 -1.26954,1.7900395 z"
         id="path5718" /><path
         d="m 350.50946,-13.8125 h 2.9707 v 1.739258 q 0.48243,-1.028321 1.28223,-1.561524 0.7998,-0.533203 1.75195,-0.533203 0.67285,0 1.40918,0.355469 l -1.0791,2.983398 q -0.60937,-0.304687 -1.00293,-0.304687 -0.7998,0 -1.3584,0.990234 -0.5459,0.9902347 -0.5459,3.8847659 l 0.0127,0.6728516 V 0 h -3.44043 z"
         id="path5720" /><path
         d="m 364.69925,-14.167969 q 1.95508,0 3.66894,0.977539 1.72657,0.977539 2.69141,2.653321 0.96484,1.6757809 0.96484,3.6181637 0,1.9550781 -0.97753,3.65625 -0.96485,1.7011719 -2.64063,2.66601561 -1.67578,0.95214844 -3.69434,0.95214844 -2.9707,0 -5.07812,-2.10742185 -2.09473,-2.1201172 -2.09473,-5.1416016 0,-3.2373043 2.37403,-5.3955083 2.08203,-1.878906 4.78613,-1.878906 z m 0.0508,3.262696 q -1.6123,0 -2.69141,1.1298824 -1.0664,1.1171875 -1.0664,2.8691406 0,1.8027344 1.05371,2.9199219 1.06641,1.1171875 2.69141,1.1171875 1.625,0 2.7041,-1.1298828 1.0791,-1.1298828 1.0791,-2.9072266 0,-1.7773438 -1.06641,-2.8818359 -1.05371,-1.1171871 -2.7041,-1.1171871 z"
         id="path5722" /><path
         d="m 383.629,-13.8125 h 3.45312 v 11.8320313 q 0,3.5039062 -1.40918,5.1542968 -1.8916,2.234375 -5.70019,2.234375 -2.03125,0 -3.41504,-0.5078125 -1.38379,-0.5078125 -2.33594,-1.4980468 -0.95215,-0.9775391 -1.40918,-2.3867188 h 3.82129 q 0.50781,0.5839844 1.30762,0.8759766 0.7998,0.3046875 1.8916,0.3046875 1.39648,0 2.24707,-0.4316407 0.85059,-0.4316406 1.19336,-1.11718746 0.35547,-0.68554688 0.35547,-2.36132814 -0.91406,0.91406251 -1.91699,1.32031251 Q 380.70908,0 379.43954,0 q -2.78027,0 -4.69726,-2.0058594 -1.91699,-2.0058593 -1.91699,-5.078125 0,-3.2880856 2.03125,-5.2812496 1.84082,-1.802735 4.39257,-1.802735 1.19336,0 2.24708,0.444336 1.0664,0.431641 2.13281,1.43457 z m -3.59278,2.881836 q -1.63769,0 -2.7041,1.1044921 -1.0664,1.0917969 -1.0664,2.7548828 0,1.7265625 1.09179,2.8310547 1.0918,1.1044922 2.74219,1.1044922 1.61231,0 2.65332,-1.0791015 1.05371,-1.0791016 1.05371,-2.8310547 0,-1.7265625 -1.05371,-2.8056641 -1.05371,-1.0791015 -2.7168,-1.0791015 z"
         id="path5724" /><path
         d="m 402.98984,-5.9033203 h -11.13379 q 0.24121,1.4726562 1.28223,2.3486328 1.05371,0.8632812 2.67871,0.8632812 1.94238,0 3.33886,-1.3583984 l 2.91993,1.3710938 q -1.0918,1.5488281 -2.61524,2.29785152 -1.52344,0.73632813 -3.61816,0.73632813 -3.25,0 -5.29395,-2.04394535 -2.04394,-2.0566406 -2.04394,-5.1416015 0,-3.1611328 2.03125,-5.2431639 2.04394,-2.094727 5.11621,-2.094727 3.26269,0 5.30664,2.094727 2.04394,2.0820311 2.04394,5.5097654 z m -3.47852,-2.7294922 q -0.34277,-1.1552734 -1.3584,-1.8789065 -1.00293,-0.723633 -2.33593,-0.723633 -1.44727,0 -2.53907,0.8125 -0.68554,0.5078129 -1.26953,1.7900395 z"
         id="path5726" /><path
         d="m 404.36194,-13.8125 h 3.45312 v 1.40918 q 1.18067,-0.990235 2.13282,-1.371094 0.96484,-0.393555 1.96777,-0.393555 2.05664,0 3.49121,1.434571 1.20606,1.21875 1.20606,3.6054683 V 0 h -3.42774 v -6.0556641 q 0,-2.4755859 -0.22851,-3.2880859 -0.21583,-0.8125 -0.77442,-1.231445 -0.5459,-0.431641 -1.3584,-0.431641 -1.05371,0 -1.81543,0.710938 -0.74902,0.6982417 -1.04101,1.9423824 -0.15235,0.6474609 -0.15235,2.805664 V 0 h -3.45312 z"
         id="path5728" /><path
         d="m 432.36984,-5.9033203 h -11.13379 q 0.24121,1.4726562 1.28223,2.3486328 1.05371,0.8632812 2.67871,0.8632812 1.94238,0 3.33887,-1.3583984 l 2.91992,1.3710938 q -1.0918,1.5488281 -2.61523,2.29785152 -1.52344,0.73632813 -3.61817,0.73632813 -3.25,0 -5.29394,-2.04394535 -2.04395,-2.0566406 -2.04395,-5.1416015 0,-3.1611328 2.03125,-5.2431639 2.04395,-2.094727 5.11621,-2.094727 3.2627,0 5.30664,2.094727 2.04395,2.0820311 2.04395,5.5097654 z m -3.47851,-2.7294922 q -0.34278,-1.1552734 -1.3584,-1.8789065 -1.00293,-0.723633 -2.33594,-0.723633 -1.44726,0 -2.53906,0.8125 -0.68555,0.5078129 -1.26953,1.7900395 z"
         id="path5730" /><path
         d="m 440.22925,-14.167969 q 1.95508,0 3.66894,0.977539 1.72657,0.977539 2.69141,2.653321 0.96484,1.6757809 0.96484,3.6181637 0,1.9550781 -0.97754,3.65625 -0.96484,1.7011719 -2.64062,2.66601561 -1.67578,0.95214844 -3.69434,0.95214844 -2.9707,0 -5.07812,-2.10742185 -2.09473,-2.1201172 -2.09473,-5.1416016 0,-3.2373043 2.37403,-5.3955083 2.08203,-1.878906 4.78613,-1.878906 z m 0.0508,3.262696 q -1.61231,0 -2.69141,1.1298824 -1.0664,1.1171875 -1.0664,2.8691406 0,1.8027344 1.05371,2.9199219 1.0664,1.1171875 2.6914,1.1171875 1.625,0 2.70411,-1.1298828 1.0791,-1.1298828 1.0791,-2.9072266 0,-1.7773438 -1.06641,-2.8818359 -1.05371,-1.1171871 -2.7041,-1.1171871 z"
         id="path5732" /><path
         d="m 448.93927,-13.8125 h 3.50391 v 6.6523438 q 0,1.9423828 0.2666,2.7041015 0.2666,0.7490234 0.85058,1.1679688 0.59668,0.4189453 1.45996,0.4189453 0.86329,0 1.45997,-0.40625 0.60937,-0.4189453 0.90136,-1.21875 0.21582,-0.5966797 0.21582,-2.5517578 V -13.8125 h 3.47852 v 5.8525391 q 0,3.618164 -0.57129,4.9511718 -0.69824,1.625 -2.05664,2.5009766 -1.3584,0.86328125 -3.45313,0.86328125 -2.27246,0 -3.68164,-1.015625 -1.39648,-1.01562495 -1.96777,-2.83105465 -0.40625,-1.256836 -0.40625,-4.5703125 z"
         id="path5734" /><path
         d="m 471.57703,-11.882813 -2.14551,2.1455083 q -1.30762,-1.2949223 -2.37402,-1.2949223 -0.58399,0 -0.91407,0.253907 -0.33008,0.241211 -0.33008,0.609375 0,0.2792966 0.20313,0.5205075 0.21582,0.2285156 1.04102,0.6347656 l 1.26953,0.6347656 q 2.00586,0.9902344 2.75488,2.0185547 0.74902,1.0283204 0.74902,2.4121094 0,1.8408203 -1.3584,3.07226564 -1.3457,1.23144531 -3.61816,1.23144531 -3.02148,0 -4.82422,-2.36132815 l 2.13281,-2.3232422 q 0.60938,0.7109375 1.42188,1.1552735 0.82519,0.4316406 1.45996,0.4316406 0.68555,0 1.10449,-0.3300781 0.41895,-0.3300782 0.41895,-0.7617188 0,-0.7998047 -1.51074,-1.5615234 l -1.16797,-0.5839844 q -3.35157,-1.6884765 -3.35157,-4.2275388 0,-1.637696 1.25684,-2.792969 1.26953,-1.167969 3.2373,-1.167969 1.34571,0 2.52637,0.59668 1.19336,0.583984 2.01856,1.688476 z"
         id="path5736" /><path
         d="m 496.52689,-15.386719 -2.48829,2.374024 q -2.53906,-2.678711 -5.71289,-2.678711 -2.67871,0 -4.51953,1.828125 -1.82812,1.828125 -1.82812,4.5068357 0,1.8662109 0.8125,3.3134766 0.8125,1.4472656 2.29785,2.2724609 1.48535,0.8251953 3.30078,0.8251953 1.54883,0 2.83106,-0.5712891 1.28222,-0.5839843 2.81835,-2.1074218 l 2.41211,2.5136718 q -2.06933,2.0185547 -3.91015,2.8056641 -1.84082,0.77441406 -4.20215,0.77441406 -4.35449,0 -7.13477,-2.75488286 -2.76757,-2.7675781 -2.76757,-7.0839843 0,-2.7929684 1.25683,-4.9638674 1.26953,-2.170898 3.61817,-3.491211 2.36132,-1.320312 5.07812,-1.320312 2.31055,0 4.44336,0.977539 2.14551,0.977539 3.69434,2.780273 z"
         id="path5738" /><path
         d="m 507.03604,-19.144531 q 3.96094,0 6.80469,2.86914 2.85644,2.869141 2.85644,6.9951176 0,4.0878906 -2.81836,6.9189453 -2.80566,2.83105466 -6.81738,2.83105466 -4.20215,0 -6.98242,-2.90722656 -2.78027,-2.9072266 -2.78027,-6.90625 0,-2.678711 1.29492,-4.925781 1.29492,-2.247071 3.55469,-3.554688 2.27246,-1.320312 4.88769,-1.320312 z m -0.0381,3.478515 q -2.58985,0 -4.3545,1.802735 -1.76465,1.802734 -1.76465,4.5830076 0,3.0976562 2.22168,4.9003906 1.72657,1.4091797 3.96094,1.4091797 2.52637,0 4.30371,-1.828125 1.77735,-1.828125 1.77735,-4.506836 0,-2.6660159 -1.79004,-4.5068359 -1.79004,-1.853516 -4.35449,-1.853516 z"
         id="path5740" /><path
         d="m 518.24194,-13.8125 h 3.45313 v 1.40918 q 1.18066,-0.990235 2.13281,-1.371094 0.96484,-0.393555 1.96777,-0.393555 2.05664,0 3.49122,1.434571 1.20605,1.21875 1.20605,3.6054683 V 0 h -3.42773 v -6.0556641 q 0,-2.4755859 -0.22852,-3.2880859 -0.21582,-0.8125 -0.77441,-1.231445 -0.5459,-0.431641 -1.3584,-0.431641 -1.05371,0 -1.81543,0.710938 -0.74903,0.6982417 -1.04102,1.9423824 -0.15234,0.6474609 -0.15234,2.805664 V 0 h -3.45313 z"
         id="path5742" /><path
         d="m 532.83087,-18.90332 h 3.45313 v 5.09082 h 2.05664 v 2.983398 H 536.284 V 0 h -3.45313 v -10.829102 h -1.77734 V -13.8125 h 1.77734 z"
         id="path5744" /><path
         d="m 552.61987,-5.9033203 h -11.13379 q 0.24121,1.4726562 1.28223,2.3486328 1.05371,0.8632812 2.67871,0.8632812 1.94238,0 3.33887,-1.3583984 l 2.91992,1.3710938 q -1.0918,1.5488281 -2.61523,2.29785152 -1.52344,0.73632813 -3.61817,0.73632813 -3.25,0 -5.29394,-2.04394535 -2.04395,-2.0566406 -2.04395,-5.1416015 0,-3.1611328 2.03125,-5.2431639 2.04395,-2.094727 5.11621,-2.094727 3.2627,0 5.30664,2.094727 2.04395,2.0820311 2.04395,5.5097654 z m -3.47851,-2.7294922 q -0.34278,-1.1552734 -1.3584,-1.8789065 -1.00293,-0.723633 -2.33594,-0.723633 -1.44726,0 -2.53906,0.8125 -0.68555,0.5078129 -1.26953,1.7900395 z"
         id="path5746" /><path
         d="m 553.99194,-13.8125 h 3.45313 v 1.40918 q 1.18066,-0.990235 2.13281,-1.371094 0.96484,-0.393555 1.96777,-0.393555 2.05664,0 3.49122,1.434571 1.20605,1.21875 1.20605,3.6054683 V 0 h -3.42773 v -6.0556641 q 0,-2.4755859 -0.22852,-3.2880859 -0.21582,-0.8125 -0.77441,-1.231445 -0.5459,-0.431641 -1.3584,-0.431641 -1.05371,0 -1.81543,0.710938 -0.74903,0.6982417 -1.04102,1.9423824 -0.15234,0.6474609 -0.15234,2.805664 V 0 h -3.45313 z"
         id="path5748" /><path
         d="m 568.58087,-18.90332 h 3.45313 v 5.09082 h 2.05664 v 2.983398 H 572.034 V 0 h -3.45313 v -10.829102 h -1.77734 V -13.8125 h 1.77734 z"
         id="path5750" /></g></g></svg>
