<?xml version="1.0" encoding="UTF-8" standalone="no"?>
<!-- Generator: Adobe Illustrator 24.3.2, SVG Export Plug-In . SVG Version: 6.00 Build 0)  -->

<svg
   version="1.1"
   id="Calque_1"
   x="0px"
   y="0px"
   viewBox="0 0 197.4 51.900003"
   xml:space="preserve"
   sodipodi:docname="uca_logo_dark.svg"
   width="197.39999"
   height="51.900002"
   inkscape:version="1.1.2 (0a00cf5339, 2022-02-04)"
   xmlns:inkscape="http://www.inkscape.org/namespaces/inkscape"
   xmlns:sodipodi="http://sodipodi.sourceforge.net/DTD/sodipodi-0.dtd"
   xmlns="http://www.w3.org/2000/svg"
   xmlns:svg="http://www.w3.org/2000/svg"><defs
   id="defs1640">
	
	
	
	
	
	
	
	
	
	
	
	
	
	
	
	
	
	
	
	
	
	
	
	
	
	
	
	
	
	
	
	
	
	
	
	
	
	
	
	
	
	
	
	
	
	
</defs><sodipodi:namedview
   id="namedview1638"
   pagecolor="#ffffff"
   bordercolor="#000000"
   borderopacity="0.25"
   inkscape:showpageshadow="2"
   inkscape:pageopacity="0.0"
   inkscape:pagecheckerboard="0"
   inkscape:deskcolor="#d1d1d1"
   showgrid="false"
   inkscape:zoom="5.6568543"
   inkscape:cx="80.521784"
   inkscape:cy="32.350135"
   inkscape:window-width="2560"
   inkscape:window-height="1403"
   inkscape:window-x="4480"
   inkscape:window-y="198"
   inkscape:window-maximized="1"
   inkscape:current-layer="Calque_1"
   inkscape:pageshadow="2" />
<style
   type="text/css"
   id="style1541">
	.st0{fill:#00AFDB;}
	.st1{fill:#0096BF;}
	.st2{fill:#007FA2;}
	.st3{fill:#1D1D1B;}
</style>
<path
   class="st0"
   d="m 26,19.6 c -3.5,0 -6.4,2.9 -6.4,6.4 0,3.5 2.9,6.4 6.4,6.4 3.5,0 6.4,-2.9 6.4,-6.4 0,-3.5 -2.8,-6.4 -6.4,-6.4"
   id="path1543" /><path
   class="st1"
   d="m 13.9,26 c 0,-1.6 -1.3,-2.9 -2.9,-2.9 -1.6,0 -2.9,1.3 -2.9,2.9 0,1.6 1.3,2.9 2.9,2.9 1.7,0 2.9,-1.3 2.9,-2.9"
   id="path1545" /><path
   class="st1"
   d="m 41,23.1 c -1.6,0 -2.9,1.3 -2.9,2.9 0,1.6 1.3,2.9 2.9,2.9 1.6,0 2.9,-1.3 2.9,-2.9 0,-1.6 -1.3,-2.9 -2.9,-2.9"
   id="path1547" /><path
   class="st1"
   d="m 15.4,33.7 c -0.8,0 -1.5,0.3 -2,0.8 -0.5,0.5 -0.8,1.3 -0.8,2 0,0.8 0.3,1.5 0.8,2 0.5,0.5 1.3,0.8 2,0.8 0.8,0 1.5,-0.3 2,-0.8 0.5,-0.5 0.8,-1.3 0.8,-2 0,-0.8 -0.3,-1.5 -0.8,-2 -0.5,-0.5 -1.2,-0.8 -2,-0.8"
   id="path1549" /><path
   class="st1"
   d="m 36.6,18.3 c 0.8,0 1.5,-0.3 2,-0.8 0.5,-0.5 0.8,-1.3 0.8,-2 0,-0.8 -0.3,-1.5 -0.8,-2 -0.5,-0.5 -1.3,-0.8 -2,-0.8 -0.8,0 -1.5,0.3 -2,0.8 -0.5,0.5 -0.8,1.3 -0.8,2 0,0.8 0.3,1.5 0.8,2 0.5,0.5 1.2,0.8 2,0.8"
   id="path1551" /><path
   class="st1"
   d="m 15.4,18.3 c 0.8,0 1.5,-0.3 2,-0.8 1.1,-1.1 1.1,-3 0,-4.1 -0.5,-0.5 -1.3,-0.8 -2,-0.8 -0.8,0 -1.5,0.3 -2,0.8 -0.5,0.5 -0.8,1.3 -0.8,2 0,0.8 0.3,1.5 0.8,2 0.5,0.6 1.3,0.9 2,0.9"
   id="path1553" /><path
   class="st1"
   d="m 36.6,33.7 c -0.8,0 -1.5,0.3 -2,0.8 -0.5,0.5 -0.8,1.3 -0.8,2 0,0.8 0.3,1.5 0.8,2 0.5,0.5 1.3,0.8 2,0.8 0.8,0 1.5,-0.3 2,-0.8 0.5,-0.5 0.8,-1.3 0.8,-2 0,-0.7 -0.3,-1.5 -0.8,-2 -0.5,-0.5 -1.2,-0.8 -2,-0.8"
   id="path1555" /><path
   class="st1"
   d="m 26,8.2 c -1.6,0 -2.9,1.3 -2.9,2.9 0,1.6 1.3,2.9 2.9,2.9 1.6,0 2.9,-1.3 2.9,-2.9 0,-1.6 -1.3,-2.9 -2.9,-2.9"
   id="path1557" /><path
   class="st1"
   d="m 26,38.1 c -1.6,0 -2.9,1.3 -2.9,2.9 0,1.6 1.3,2.9 2.9,2.9 1.6,0 2.9,-1.3 2.9,-2.9 0,-1.6 -1.3,-2.9 -2.9,-2.9"
   id="path1559" /><path
   class="st2"
   d="m 50.4,24.4 c -0.9,0 -1.6,0.7 -1.6,1.6 0,0.9 0.7,1.6 1.6,1.6 0.9,0 1.6,-0.7 1.6,-1.6 0,-0.9 -0.7,-1.6 -1.6,-1.6"
   id="path1561" /><path
   class="st2"
   d="m 26,48.7 c -0.9,0 -1.6,0.7 -1.6,1.6 0,0.9 0.7,1.6 1.6,1.6 0.9,0 1.6,-0.7 1.6,-1.6 0,-0.8 -0.7,-1.6 -1.6,-1.6"
   id="path1563" /><path
   class="st2"
   d="m 26,3.2 c 0.9,0 1.6,-0.7 1.6,-1.6 C 27.6,0.7 26.9,0 26,0 c -0.9,0 -1.6,0.7 -1.6,1.6 0,0.9 0.7,1.6 1.6,1.6"
   id="path1565" /><path
   class="st2"
   d="m 42,42 c -0.3,0.3 -0.5,0.7 -0.5,1.2 0,0.4 0.2,0.8 0.5,1.2 0.3,0.3 0.7,0.5 1.2,0.5 0.4,0 0.8,-0.2 1.2,-0.5 0.3,-0.3 0.5,-0.7 0.5,-1.2 0,-0.4 -0.2,-0.8 -0.5,-1.2 -0.3,-0.3 -0.7,-0.5 -1.2,-0.5 -0.5,0 -0.9,0.2 -1.2,0.5"
   id="path1567" /><path
   class="st2"
   d="m 42.1,7.7 c -0.3,0.3 -0.5,0.7 -0.5,1.2 0,0.4 0.2,0.8 0.5,1.2 0.3,0.3 0.7,0.5 1.2,0.5 0.4,0 0.8,-0.2 1.2,-0.5 C 44.8,9.8 45,9.4 45,8.9 45,8.5 44.8,8.1 44.5,7.7 44.2,7.4 43.8,7.2 43.3,7.2 c -0.5,0 -0.9,0.2 -1.2,0.5"
   id="path1569" /><path
   class="st2"
   d="m 48.5,33.7 c -0.2,0 -0.5,0 -0.7,0.1 -0.6,0.2 -1,0.8 -1,1.5 0,0.9 0.7,1.7 1.6,1.7 0.2,0 0.5,0 0.7,-0.1 0.6,-0.2 1,-0.8 1,-1.5 0,-1 -0.7,-1.7 -1.6,-1.7"
   id="path1571" /><path
   class="st2"
   d="m 35.2,5.2 c 0.2,0 0.5,0 0.7,-0.1 0.6,-0.2 1,-0.8 1,-1.5 0,-0.4 -0.1,-0.8 -0.4,-1.2 -0.3,-0.3 -0.7,-0.5 -1.1,-0.5 -0.2,0 -0.5,0 -0.7,0.1 -0.6,0.2 -1,0.8 -1,1.5 -0.1,0.9 0.6,1.7 1.5,1.7"
   id="path1573" /><path
   class="st2"
   d="m 34.7,47 c -0.2,0.1 -0.3,0.2 -0.5,0.3 -0.3,0.3 -0.5,0.7 -0.5,1.1 0,0.4 0.1,0.8 0.4,1.2 0.5,0.5 1.2,0.7 1.8,0.4 0.2,-0.1 0.3,-0.2 0.5,-0.3 0.7,-0.6 0.7,-1.6 0.1,-2.3 C 36,46.9 35.3,46.7 34.7,47"
   id="path1575" /><path
   class="st2"
   d="m 49.1,18.2 c 0.2,-0.1 0.3,-0.2 0.5,-0.3 0.7,-0.6 0.7,-1.6 0.1,-2.3 -0.5,-0.5 -1.2,-0.7 -1.8,-0.4 -0.2,0.1 -0.3,0.2 -0.5,0.3 -0.7,0.6 -0.7,1.6 -0.1,2.3 0.5,0.5 1.2,0.7 1.8,0.4"
   id="path1577" /><path
   class="st2"
   d="m 1.6,24.4 c 0.9,0 1.6,0.7 1.6,1.6 0,0.9 -0.7,1.6 -1.6,1.6 C 0.7,27.6 0,26.9 0,26 0,25.1 0.7,24.4 1.6,24.4"
   id="path1579" /><path
   class="st2"
   d="m 10,42 c 0.3,0.3 0.5,0.7 0.5,1.2 0,0.4 -0.2,0.8 -0.5,1.2 C 9.7,44.6 9.3,44.8 8.8,44.8 8.4,44.8 8,44.6 7.6,44.3 7.3,44 7.1,43.6 7.1,43.1 c 0,-0.4 0.2,-0.8 0.5,-1.2 0.3,-0.3 0.7,-0.5 1.2,-0.5 0.5,0.1 0.9,0.3 1.2,0.6"
   id="path1581" /><path
   class="st2"
   d="m 10,7.7 c 0.3,0.3 0.5,0.7 0.5,1.2 0,0.4 -0.2,0.8 -0.5,1.2 C 9.7,10.4 9.3,10.6 8.8,10.6 8.4,10.6 8,10.4 7.6,10.1 7.4,9.7 7.2,9.3 7.2,8.8 7.2,8.4 7.4,8 7.7,7.6 8,7.4 8.4,7.2 8.8,7.2 9.3,7.2 9.7,7.4 10,7.7"
   id="path1583" /><path
   class="st2"
   d="m 3.5,33.7 c 0.2,0 0.5,0 0.7,0.1 0.6,0.2 1,0.8 1,1.5 0,0.9 -0.7,1.7 -1.6,1.7 -0.2,0 -0.5,0 -0.7,-0.1 -0.6,-0.2 -1,-0.8 -1,-1.5 0,-1 0.7,-1.7 1.6,-1.7"
   id="path1585" /><path
   class="st2"
   d="m 16.8,5.2 c -0.2,0 -0.5,0 -0.7,-0.1 -0.6,-0.2 -1,-0.8 -1,-1.5 0,-0.4 0.1,-0.8 0.4,-1.2 0.3,-0.3 0.7,-0.5 1.1,-0.5 0.2,0 0.5,0 0.7,0.1 0.6,0.2 1,0.8 1,1.5 0.1,0.9 -0.6,1.7 -1.5,1.7"
   id="path1587" /><path
   class="st2"
   d="m 17.3,47 c 0.2,0.1 0.3,0.2 0.5,0.3 0.3,0.3 0.5,0.7 0.5,1.1 0,0.4 -0.1,0.8 -0.4,1.2 -0.5,0.5 -1.2,0.7 -1.8,0.4 -0.2,-0.1 -0.3,-0.2 -0.5,-0.3 -0.7,-0.6 -0.7,-1.6 -0.1,-2.3 0.5,-0.5 1.2,-0.7 1.8,-0.4"
   id="path1589" /><path
   class="st2"
   d="M 2.9,18.2 C 2.7,18.1 2.6,18 2.4,17.9 1.7,17.3 1.7,16.3 2.3,15.6 c 0.5,-0.5 1.2,-0.7 1.8,-0.4 0.2,0.1 0.3,0.2 0.5,0.3 0.7,0.6 0.7,1.6 0.1,2.3 -0.4,0.5 -1.2,0.7 -1.8,0.4"
   id="path1591" /><path
   class="st2"
   d="m 66.2,31.5 c 2,0 3.7,0.4 4.9,0.9 v 3.3 c -2.2,-0.9 -3.5,-1.1 -4.9,-1.1 -2.8,0 -3.8,2.7 -3.8,6 0,3.3 1,6 3.8,6 1.4,0 2.7,-0.2 4.9,-1.1 v 3.3 c -1.2,0.5 -2.9,0.9 -4.9,0.9 -5.3,0 -7,-4.1 -7,-9 0,-5.1 1.7,-9.2 7,-9.2"
   id="path1593" /><path
   class="st2"
   d="m 80.3,34.6 c -3,0 -3.4,2.8 -3.4,6 0,3.2 0.4,6 3.4,6 3,0 3.4,-2.8 3.4,-6 0,-3.2 -0.4,-6 -3.4,-6 m 1.8,-4 -1.7,-1.1 -2.1,1.1 h -2.2 l 3.1,-2.2 h 2.4 l 2.7,2.2 z m -1.8,18.9 c -5.9,0 -6.7,-4.5 -6.7,-9 0,-4.5 0.8,-9 6.7,-9 5.9,0 6.7,4.5 6.7,9 0,4.5 -0.8,9 -6.7,9"
   id="path1595" /><polygon
   class="st2"
   points="114.4,61.6 114.4,58.6 126.2,58.6 126.2,61.6 121.9,61.6 121.9,75.9 118.7,75.9 118.7,61.6 "
   id="polygon1597"
   transform="translate(-26,-26.7)" /><polygon
   class="st2"
   points="139.4,75.9 128.6,75.9 128.6,58.6 139.4,58.6 139.4,61.6 131.8,61.6 131.8,65.4 138.6,65.4 138.6,68.5 131.8,68.5 131.8,72.8 139.4,72.8 "
   id="polygon1599"
   transform="translate(-26,-26.7)" /><path
   class="st2"
   d="m 123.9,46.1 h 2 c 3.1,0 4.1,-2.3 4.1,-5.6 0,-3.3 -0.9,-5.6 -4.1,-5.6 h -2 z m -3.2,3.1 V 31.9 h 5.1 c 5.8,0 7.4,3.7 7.4,8.7 0,4.9 -1.6,8.7 -7.4,8.7 z"
   id="path1601" /><path
   class="st2"
   d="m 135.3,37.6 c 0,0 1.1,-2.3 0.7,-5.8 h 3 c -0.1,3.6 -2.4,5.8 -2.4,5.8 z"
   id="path1603" /><path
   class="st2"
   d="m 144.9,37.2 -1.5,4.5 h 2.9 z m -7.2,12 6.2,-17.7 h 2.2 l 6.1,17.7 h -3.4 l -1.5,-4.4 h -4.8 l -1.4,4.4 z"
   id="path1605" /><polygon
   class="st2"
   points="179.9,58.6 192,58.6 192,60.6 183.8,72.8 192.3,72.8 192.3,75.9 179.5,75.9 179.5,73.8 187.6,61.6 179.9,61.6 "
   id="polygon1607"
   transform="translate(-26,-26.7)" /><path
   class="st2"
   d="M 178.1,43.3 V 31.9 h 3.2 v 11.7 c 0,5.1 -4.2,6 -6.4,6 -2.2,0 -6.4,-0.8 -6.4,-6 V 31.9 h 3.2 v 11.4 c 0,2.9 2.1,3.2 3.2,3.2 1.1,-0.1 3.2,-0.3 3.2,-3.2"
   id="path1609" /><path
   class="st2"
   d="m 187.5,39.3 h 2.9 c 2,0 2.3,-1 2.3,-2.2 0,-1.2 -0.3,-2.1 -2.3,-2.1 h -2.9 z m 0,9.9 h -3.2 V 31.9 h 5.7 c 4.6,0 6,2 6,5.2 0,2.2 -0.6,3.8 -2.5,4.6 0.3,0.7 0.8,1.5 1.2,2.3 0.8,1.6 2,3.8 2.7,5.2 h -3.9 l -3.3,-6.8 h -2.7 z"
   id="path1611" /><path
   class="st3"
   d="m 72.9,19.9 c 0,4.4 -2.1,5.3 -5.5,5.3 -3.4,0 -5.5,-0.9 -5.5,-5.3 V 6.7 h -1.3 v 13.1 c 0,5.8 3.6,6.6 6.8,6.6 3.2,0 6.8,-0.7 6.8,-6.6 V 6.7 h -1.3 z"
   id="path1613"
   style="fill:#f2f2f2" /><polygon
   class="st3"
   points="105.5,53 105.4,36.4 116.5,53 117.4,53 117.4,33.4 116,33.4 116.1,50 105,33.4 104.1,33.4 104.1,53 "
   id="polygon1615"
   transform="translate(-26,-26.7)"
   style="fill:#f2f2f2" /><rect
   x="95.900002"
   y="6.7000017"
   class="st3"
   width="1.4"
   height="19.6"
   id="rect1617"
   style="fill:#f2f2f2" /><polygon
   class="st3"
   points="134.5,53.1 141.4,33.4 139.9,33.4 134,50.6 128.1,33.4 126.6,33.4 133.5,53.1 "
   id="polygon1619"
   transform="translate(-26,-26.7)"
   style="fill:#f2f2f2" /><polygon
   class="st3"
   points="145.5,43.5 154.3,43.5 154.3,42.2 145.5,42.2 145.5,34.7 155.2,34.7 155.2,33.4 144.1,33.4 144.1,53 155.2,53 155.2,51.7 145.5,51.7 "
   id="polygon1621"
   transform="translate(-26,-26.7)"
   style="fill:#f2f2f2" /><path
   class="st3"
   d="m 143.8,12.1 c 0,2.6 -0.7,4.1 -4.3,4.1 h -5.3 V 8 h 5.3 c 3.6,0 4.3,1.5 4.3,4.1 m 1.3,0 c 0,-3.2 -1,-5.4 -6.1,-5.4 h -6.3 v 19.6 h 1.4 v -8.8 h 4.9 c 0.3,0 0.5,0 0.8,0 l 4.6,8.8 h 1.6 l -4.8,-8.9 c 3.5,-0.7 3.9,-2.9 3.9,-5.3"
   id="path1623"
   style="fill:#f2f2f2" /><path
   class="st3"
   d="m 154.5,15.5 c -4.1,-0.5 -5.1,-0.9 -5.1,-3.7 0,-1.7 0.5,-3.9 5.1,-3.9 1.8,0 3,0.2 4.6,0.8 l 0.4,0.1 V 7.4 l -0.2,-0.1 c -1.3,-0.5 -2.8,-0.8 -4.8,-0.8 -5.3,0 -6.5,2.8 -6.5,5.2 0,3.9 1.9,4.5 6.2,5 4.3,0.5 5,1 5,4 0,2.9 -1.9,4.4 -5.8,4.4 -2.3,0 -3.8,-0.4 -5,-0.9 L 148,24.1 v 1.4 l 0.2,0.1 c 1.2,0.5 3.5,0.9 5.2,0.9 2.7,0 7.2,-0.7 7.2,-5.7 0,-4.4 -2.2,-4.8 -6.1,-5.3"
   id="path1625"
   style="fill:#f2f2f2" /><rect
   x="164.60001"
   y="6.7000017"
   class="st3"
   width="1.4"
   height="19.6"
   id="rect1627"
   style="fill:#f2f2f2" /><polygon
   class="st3"
   points="202.4,34.7 207.9,34.7 207.9,33.4 195.5,33.4 195.5,34.7 201,34.7 201,53 202.4,53 "
   id="polygon1629"
   transform="translate(-26,-26.7)"
   style="fill:#f2f2f2" /><polygon
   class="st3"
   points="220.5,29.2 218.3,29.2 215.1,32.1 216.3,32.1 "
   id="polygon1631"
   transform="translate(-26,-26.7)"
   style="fill:#f2f2f2" /><polygon
   class="st3"
   points="222,53 222,51.7 212.2,51.7 212.2,43.5 221,43.5 221,42.2 212.2,42.2 212.2,34.7 222,34.7 222,33.4 210.9,33.4 210.9,53 "
   id="polygon1633"
   transform="translate(-26,-26.7)"
   style="fill:#f2f2f2" />
</svg>
